<svg width="162" height="33" viewBox="0 0 162 33" fill="none" xmlns="http://www.w3.org/2000/svg">
<mask id="path-1-outside-1_202_2" maskUnits="userSpaceOnUse" x="-4" y="2" width="165" height="29" fill="black">
<rect fill="white" x="-4" y="2" width="165" height="29"/>
<path d="M2.82955 23H0.613636L7.02273 5.54545H9.20455L15.6136 23H13.3977L8.18182 8.30682H8.04545L2.82955 23ZM3.64773 16.1818H12.5795V18.0568H3.64773V16.1818ZM20.071 15.125V23H18.0597V9.90909H20.0028V11.9545H20.1733C20.4801 11.2898 20.946 10.7557 21.571 10.3523C22.196 9.94318 23.0028 9.73864 23.9915 9.73864C24.8778 9.73864 25.6534 9.92045 26.3182 10.2841C26.983 10.642 27.5 11.1875 27.8693 11.9205C28.2386 12.6477 28.4233 13.5682 28.4233 14.6818V23H26.4119V14.8182C26.4119 13.7898 26.1449 12.9886 25.6108 12.4148C25.0767 11.8352 24.3438 11.5455 23.4119 11.5455C22.7699 11.5455 22.196 11.6847 21.6903 11.9631C21.1903 12.2415 20.7955 12.6477 20.5057 13.1818C20.2159 13.7159 20.071 14.3636 20.071 15.125ZM37.7919 9.90909V11.6136H31.0078V9.90909H37.7919ZM32.9851 6.77273H34.9964V19.25C34.9964 19.8182 35.0788 20.2443 35.2436 20.5284C35.4141 20.8068 35.63 20.9943 35.8913 21.0909C36.1584 21.1818 36.4396 21.2273 36.7351 21.2273C36.9567 21.2273 37.1385 21.2159 37.2805 21.1932C37.4226 21.1648 37.5362 21.142 37.6214 21.125L38.0305 22.9318C37.8942 22.983 37.7038 23.0341 37.4595 23.0852C37.2152 23.142 36.9055 23.1705 36.5305 23.1705C35.9624 23.1705 35.4055 23.0483 34.8601 22.804C34.3203 22.5597 33.8714 22.1875 33.5135 21.6875C33.1612 21.1875 32.9851 20.5568 32.9851 19.7955V6.77273ZM45.995 23.2727C44.8132 23.2727 43.7763 22.9915 42.8842 22.429C41.9979 21.8665 41.3047 21.0795 40.8047 20.0682C40.3104 19.0568 40.0632 17.875 40.0632 16.5227C40.0632 15.1591 40.3104 13.9687 40.8047 12.9517C41.3047 11.9347 41.9979 11.1449 42.8842 10.5824C43.7763 10.0199 44.8132 9.73864 45.995 9.73864C47.1768 9.73864 48.2109 10.0199 49.0973 10.5824C49.9893 11.1449 50.6825 11.9347 51.1768 12.9517C51.6768 13.9687 51.9268 15.1591 51.9268 16.5227C51.9268 17.875 51.6768 19.0568 51.1768 20.0682C50.6825 21.0795 49.9893 21.8665 49.0973 22.429C48.2109 22.9915 47.1768 23.2727 45.995 23.2727ZM45.995 21.4659C46.8928 21.4659 47.6314 21.2358 48.2109 20.7756C48.7905 20.3153 49.2195 19.7102 49.4979 18.9602C49.7763 18.2102 49.9155 17.3977 49.9155 16.5227C49.9155 15.6477 49.7763 14.8324 49.4979 14.0767C49.2195 13.321 48.7905 12.7102 48.2109 12.2443C47.6314 11.7784 46.8928 11.5455 45.995 11.5455C45.0973 11.5455 44.3587 11.7784 43.7791 12.2443C43.1996 12.7102 42.7706 13.321 42.4922 14.0767C42.2138 14.8324 42.0746 15.6477 42.0746 16.5227C42.0746 17.3977 42.2138 18.2102 42.4922 18.9602C42.7706 19.7102 43.1996 20.3153 43.7791 20.7756C44.3587 21.2358 45.0973 21.4659 45.995 21.4659ZM54.9972 23V9.90909H56.9403V11.9545H57.1108C57.3835 11.2557 57.8239 10.7131 58.4318 10.3267C59.0398 9.93466 59.7699 9.73864 60.6222 9.73864C61.4858 9.73864 62.2045 9.93466 62.7784 10.3267C63.358 10.7131 63.8097 11.2557 64.1335 11.9545H64.2699C64.6051 11.2784 65.108 10.7415 65.7784 10.3438C66.4489 9.94034 67.2528 9.73864 68.1903 9.73864C69.3608 9.73864 70.3182 10.1051 71.0625 10.8381C71.8068 11.5653 72.179 12.6989 72.179 14.2386V23H70.1676V14.2386C70.1676 13.2727 69.9034 12.5824 69.375 12.1676C68.8466 11.7528 68.2244 11.5455 67.5085 11.5455C66.5881 11.5455 65.875 11.8239 65.3693 12.3807C64.8636 12.9318 64.6108 13.6307 64.6108 14.4773V23H62.5653V14.0341C62.5653 13.2898 62.3239 12.6903 61.8409 12.2358C61.358 11.7756 60.7358 11.5455 59.9744 11.5455C59.4517 11.5455 58.9631 11.6847 58.5085 11.9631C58.0597 12.2415 57.696 12.6278 57.4176 13.1222C57.1449 13.6108 57.0085 14.1761 57.0085 14.8182V23H54.9972ZM81.1747 23.2727C79.9929 23.2727 78.956 22.9915 78.0639 22.429C77.1776 21.8665 76.4844 21.0795 75.9844 20.0682C75.4901 19.0568 75.2429 17.875 75.2429 16.5227C75.2429 15.1591 75.4901 13.9687 75.9844 12.9517C76.4844 11.9347 77.1776 11.1449 78.0639 10.5824C78.956 10.0199 79.9929 9.73864 81.1747 9.73864C82.3565 9.73864 83.3906 10.0199 84.277 10.5824C85.169 11.1449 85.8622 11.9347 86.3565 12.9517C86.8565 13.9687 87.1065 15.1591 87.1065 16.5227C87.1065 17.875 86.8565 19.0568 86.3565 20.0682C85.8622 21.0795 85.169 21.8665 84.277 22.429C83.3906 22.9915 82.3565 23.2727 81.1747 23.2727ZM81.1747 21.4659C82.0724 21.4659 82.8111 21.2358 83.3906 20.7756C83.9702 20.3153 84.3991 19.7102 84.6776 18.9602C84.956 18.2102 85.0952 17.3977 85.0952 16.5227C85.0952 15.6477 84.956 14.8324 84.6776 14.0767C84.3991 13.321 83.9702 12.7102 83.3906 12.2443C82.8111 11.7784 82.0724 11.5455 81.1747 11.5455C80.277 11.5455 79.5384 11.7784 78.9588 12.2443C78.3793 12.7102 77.9503 13.321 77.6719 14.0767C77.3935 14.8324 77.2543 15.6477 77.2543 16.5227C77.2543 17.3977 77.3935 18.2102 77.6719 18.9602C77.9503 19.7102 78.3793 20.3153 78.9588 20.7756C79.5384 21.2358 80.277 21.4659 81.1747 21.4659ZM90.1768 27.9091V9.90909H92.12V11.9886H92.3587C92.5064 11.7614 92.7109 11.4716 92.9723 11.1193C93.2393 10.7614 93.62 10.4432 94.1143 10.1648C94.6143 9.88068 95.2905 9.73864 96.1428 9.73864C97.245 9.73864 98.2166 10.0142 99.0575 10.5653C99.8984 11.1165 100.555 11.8977 101.026 12.9091C101.498 13.9205 101.734 15.1136 101.734 16.4886C101.734 17.875 101.498 19.0767 101.026 20.0938C100.555 21.1051 99.9013 21.8892 99.0661 22.446C98.2308 22.9972 97.2678 23.2727 96.1768 23.2727C95.3359 23.2727 94.6626 23.1335 94.157 22.8551C93.6513 22.571 93.2621 22.25 92.9893 21.892C92.7166 21.5284 92.5064 21.2273 92.3587 20.9886H92.1882V27.9091H90.1768ZM92.1541 16.4545C92.1541 17.4432 92.299 18.3153 92.5888 19.071C92.8786 19.821 93.3018 20.4091 93.8587 20.8352C94.4155 21.2557 95.0973 21.4659 95.9041 21.4659C96.745 21.4659 97.4467 21.2443 98.0092 20.8011C98.5774 20.3523 99.0036 19.75 99.2876 18.9943C99.5774 18.233 99.7223 17.3864 99.7223 16.4545C99.7223 15.5341 99.5803 14.7045 99.2962 13.9659C99.0178 13.2216 98.5945 12.6335 98.0263 12.2017C97.4638 11.7642 96.7564 11.5455 95.9041 11.5455C95.0859 11.5455 94.3984 11.7528 93.8416 12.1676C93.2848 12.5767 92.8643 13.1506 92.5803 13.8892C92.2962 14.6222 92.1541 15.4773 92.1541 16.4545ZM110.12 23.2727C108.938 23.2727 107.901 22.9915 107.009 22.429C106.123 21.8665 105.43 21.0795 104.93 20.0682C104.435 19.0568 104.188 17.875 104.188 16.5227C104.188 15.1591 104.435 13.9687 104.93 12.9517C105.43 11.9347 106.123 11.1449 107.009 10.5824C107.901 10.0199 108.938 9.73864 110.12 9.73864C111.302 9.73864 112.336 10.0199 113.222 10.5824C114.114 11.1449 114.808 11.9347 115.302 12.9517C115.802 13.9687 116.052 15.1591 116.052 16.5227C116.052 17.875 115.802 19.0568 115.302 20.0682C114.808 21.0795 114.114 21.8665 113.222 22.429C112.336 22.9915 111.302 23.2727 110.12 23.2727ZM110.12 21.4659C111.018 21.4659 111.756 21.2358 112.336 20.7756C112.915 20.3153 113.344 19.7102 113.623 18.9602C113.901 18.2102 114.04 17.3977 114.04 16.5227C114.04 15.6477 113.901 14.8324 113.623 14.0767C113.344 13.321 112.915 12.7102 112.336 12.2443C111.756 11.7784 111.018 11.5455 110.12 11.5455C109.222 11.5455 108.484 11.7784 107.904 12.2443C107.325 12.7102 106.896 13.321 106.617 14.0767C106.339 14.8324 106.2 15.6477 106.2 16.5227C106.2 17.3977 106.339 18.2102 106.617 18.9602C106.896 19.7102 107.325 20.3153 107.904 20.7756C108.484 21.2358 109.222 21.4659 110.12 21.4659ZM118.747 23V21.4659L126.179 11.9205V11.7841H118.986V9.90909H128.77V11.5114L121.543 20.9886V21.125H129.009V23H118.747ZM135.959 23.3068C135.129 23.3068 134.376 23.1506 133.7 22.8381C133.024 22.5199 132.487 22.0625 132.089 21.4659C131.692 20.8636 131.493 20.1364 131.493 19.2841C131.493 18.5341 131.641 17.9261 131.936 17.4602C132.232 16.9886 132.626 16.6193 133.121 16.3523C133.615 16.0852 134.161 15.8864 134.757 15.7557C135.359 15.6193 135.964 15.5114 136.572 15.4318C137.368 15.3295 138.013 15.2528 138.507 15.2017C139.007 15.1449 139.371 15.0511 139.598 14.9205C139.831 14.7898 139.947 14.5625 139.947 14.2386V14.1705C139.947 13.3295 139.717 12.6761 139.257 12.2102C138.803 11.7443 138.112 11.5114 137.186 11.5114C136.226 11.5114 135.473 11.7216 134.928 12.142C134.382 12.5625 133.999 13.0114 133.777 13.4886L131.868 12.8068C132.209 12.0114 132.663 11.392 133.232 10.9489C133.805 10.5 134.43 10.1875 135.107 10.0114C135.788 9.82955 136.459 9.73864 137.118 9.73864C137.538 9.73864 138.021 9.78977 138.567 9.89204C139.118 9.98864 139.649 10.1903 140.161 10.4972C140.678 10.804 141.107 11.267 141.447 11.8864C141.788 12.5057 141.959 13.3352 141.959 14.375V23H139.947V21.2273H139.845C139.709 21.5114 139.482 21.8153 139.163 22.1392C138.845 22.4631 138.422 22.7386 137.893 22.9659C137.365 23.1932 136.72 23.3068 135.959 23.3068ZM136.266 21.5C137.061 21.5 137.732 21.3438 138.277 21.0312C138.828 20.7188 139.243 20.3153 139.521 19.821C139.805 19.3267 139.947 18.8068 139.947 18.2614V16.4205C139.862 16.5227 139.675 16.6165 139.385 16.7017C139.101 16.7812 138.771 16.8523 138.396 16.9148C138.027 16.9716 137.666 17.0227 137.314 17.0682C136.967 17.108 136.686 17.142 136.47 17.1705C135.947 17.2386 135.459 17.3494 135.004 17.5028C134.555 17.6506 134.192 17.875 133.913 18.1761C133.641 18.4716 133.504 18.875 133.504 19.3864C133.504 20.0852 133.763 20.6136 134.28 20.9716C134.803 21.3239 135.464 21.5 136.266 21.5ZM145.63 27.9091V9.90909H147.573V11.9886H147.812C147.96 11.7614 148.164 11.4716 148.425 11.1193C148.692 10.7614 149.073 10.4432 149.567 10.1648C150.067 9.88068 150.744 9.73864 151.596 9.73864C152.698 9.73864 153.67 10.0142 154.511 10.5653C155.352 11.1165 156.008 11.8977 156.479 12.9091C156.951 13.9205 157.187 15.1136 157.187 16.4886C157.187 17.875 156.951 19.0767 156.479 20.0938C156.008 21.1051 155.354 21.8892 154.519 22.446C153.684 22.9972 152.721 23.2727 151.63 23.2727C150.789 23.2727 150.116 23.1335 149.61 22.8551C149.104 22.571 148.715 22.25 148.442 21.892C148.17 21.5284 147.96 21.2273 147.812 20.9886H147.641V27.9091H145.63ZM147.607 16.4545C147.607 17.4432 147.752 18.3153 148.042 19.071C148.332 19.821 148.755 20.4091 149.312 20.8352C149.869 21.2557 150.55 21.4659 151.357 21.4659C152.198 21.4659 152.9 21.2443 153.462 20.8011C154.031 20.3523 154.457 19.75 154.741 18.9943C155.031 18.233 155.175 17.3864 155.175 16.4545C155.175 15.5341 155.033 14.7045 154.749 13.9659C154.471 13.2216 154.048 12.6335 153.479 12.2017C152.917 11.7642 152.21 11.5455 151.357 11.5455C150.539 11.5455 149.852 11.7528 149.295 12.1676C148.738 12.5767 148.317 13.1506 148.033 13.8892C147.749 14.6222 147.607 15.4773 147.607 16.4545Z"/>
</mask>
<path d="M2.82955 23V26H4.948L5.6567 24.0036L2.82955 23ZM0.613636 23L-2.20252 21.9659L-3.68377 26H0.613636V23ZM7.02273 5.54545V2.54545H4.92844L4.20657 4.5114L7.02273 5.54545ZM9.20455 5.54545L12.0207 4.5114L11.2988 2.54545H9.20455V5.54545ZM15.6136 23V26H19.911L18.4298 21.9659L15.6136 23ZM13.3977 23L10.5706 24.0036L11.2793 26H13.3977V23ZM8.18182 8.30682L11.009 7.30321L10.3003 5.30682H8.18182V8.30682ZM8.04545 8.30682V5.30682H5.927L5.2183 7.30321L8.04545 8.30682ZM3.64773 16.1818V13.1818H0.647727V16.1818H3.64773ZM12.5795 16.1818H15.5795V13.1818H12.5795V16.1818ZM12.5795 18.0568V21.0568H15.5795V18.0568H12.5795ZM3.64773 18.0568H0.647727V21.0568H3.64773V18.0568ZM2.82955 20H0.613636V26H2.82955V20ZM3.42979 24.0341L9.83888 6.57951L4.20657 4.5114L-2.20252 21.9659L3.42979 24.0341ZM7.02273 8.54545H9.20455V2.54545H7.02273V8.54545ZM6.38839 6.57951L12.7975 24.0341L18.4298 21.9659L12.0207 4.5114L6.38839 6.57951ZM15.6136 20H13.3977V26H15.6136V20ZM16.2249 21.9964L11.009 7.30321L5.35467 9.31042L10.5706 24.0036L16.2249 21.9964ZM8.18182 5.30682H8.04545V11.3068H8.18182V5.30682ZM5.2183 7.30321L0.00239577 21.9964L5.6567 24.0036L10.8726 9.31042L5.2183 7.30321ZM3.64773 19.1818H12.5795V13.1818H3.64773V19.1818ZM9.57955 16.1818V18.0568H15.5795V16.1818H9.57955ZM12.5795 15.0568H3.64773V21.0568H12.5795V15.0568ZM6.64773 18.0568V16.1818H0.647727V18.0568H6.64773ZM20.071 23V26H23.071V23H20.071ZM18.0597 23H15.0597V26H18.0597V23ZM18.0597 9.90909V6.90909H15.0597V9.90909H18.0597ZM20.0028 9.90909H23.0028V6.90909H20.0028V9.90909ZM20.0028 11.9545H17.0028V14.9545H20.0028V11.9545ZM20.1733 11.9545V14.9545H22.0928L22.8972 13.2117L20.1733 11.9545ZM21.571 10.3523L23.1979 12.8728L23.206 12.8676L23.214 12.8624L21.571 10.3523ZM26.3182 10.2841L24.8785 12.9161L24.8872 12.9208L24.8959 12.9255L26.3182 10.2841ZM27.8693 11.9205L25.1902 13.2704L25.1944 13.2788L27.8693 11.9205ZM28.4233 23V26H31.4233V23H28.4233ZM26.4119 23H23.4119V26H26.4119V23ZM25.6108 12.4148L23.4047 14.4478L23.4097 14.4532L23.4147 14.4586L25.6108 12.4148ZM21.6903 11.9631L20.2435 9.33504L20.2372 9.33851L20.2309 9.342L21.6903 11.9631ZM20.5057 13.1818L17.8688 11.7512L17.8688 11.7512L20.5057 13.1818ZM17.071 15.125V23H23.071V15.125H17.071ZM20.071 20H18.0597V26H20.071V20ZM21.0597 23V9.90909H15.0597V23H21.0597ZM18.0597 12.9091H20.0028V6.90909H18.0597V12.9091ZM17.0028 9.90909V11.9545H23.0028V9.90909H17.0028ZM20.0028 14.9545H20.1733V8.95455H20.0028V14.9545ZM22.8972 13.2117C22.9615 13.0723 23.0429 12.9729 23.1979 12.8728L19.9441 7.83172C18.8492 8.53847 17.9987 9.50727 17.4494 10.6974L22.8972 13.2117ZM23.214 12.8624C23.2159 12.8612 23.4013 12.7386 23.9915 12.7386V6.73864C22.6044 6.73864 21.1762 7.02521 19.928 7.84217L23.214 12.8624ZM23.9915 12.7386C24.4605 12.7386 24.7247 12.832 24.8785 12.9161L27.7579 7.65212C26.5821 7.00894 25.2952 6.73864 23.9915 6.73864V12.7386ZM24.8959 12.9255C24.9718 12.9664 25.0723 13.0364 25.1902 13.2704L30.5484 10.5705C29.9277 9.33865 28.9941 8.31772 27.7405 7.64268L24.8959 12.9255ZM25.1944 13.2788C25.2865 13.4602 25.4233 13.8766 25.4233 14.6818H31.4233C31.4233 13.2598 31.1907 11.8353 30.5442 10.5621L25.1944 13.2788ZM25.4233 14.6818V23H31.4233V14.6818H25.4233ZM28.4233 20H26.4119V26H28.4233V20ZM29.4119 23V14.8182H23.4119V23H29.4119ZM29.4119 14.8182C29.4119 13.2744 29.0023 11.6554 27.8069 10.3709L23.4147 14.4586C23.3671 14.4075 23.3572 14.3696 23.3656 14.3947C23.3777 14.4311 23.4119 14.5587 23.4119 14.8182H29.4119ZM27.8169 10.3817C26.611 9.07322 25.0154 8.54545 23.4119 8.54545V14.5455C23.5677 14.5455 23.5999 14.5694 23.5575 14.5527C23.5369 14.5445 23.5077 14.5301 23.4757 14.5082C23.4437 14.4863 23.4198 14.4642 23.4047 14.4478L27.8169 10.3817ZM23.4119 8.54545C22.3219 8.54545 21.2405 8.78613 20.2435 9.33504L23.1372 14.5911C23.1516 14.5832 23.2179 14.5455 23.4119 14.5455V8.54545ZM20.2309 9.342C19.2022 9.91481 18.4126 10.7489 17.8688 11.7512L23.1426 14.6125C23.1547 14.5901 23.1636 14.577 23.168 14.571C23.1722 14.5652 23.1732 14.5647 23.1704 14.5676C23.1675 14.5705 23.1632 14.5745 23.158 14.5785C23.1528 14.5824 23.1496 14.5843 23.1498 14.5841L20.2309 9.342ZM17.8688 11.7512C17.2878 12.822 17.071 13.9881 17.071 15.125H23.071C23.071 14.9331 23.0894 14.8032 23.1073 14.7231C23.1248 14.6452 23.1416 14.6143 23.1426 14.6125L17.8688 11.7512ZM37.7919 9.90909H40.7919V6.90909H37.7919V9.90909ZM37.7919 11.6136V14.6136H40.7919V11.6136H37.7919ZM31.0078 11.6136H28.0078V14.6136H31.0078V11.6136ZM31.0078 9.90909V6.90909H28.0078V9.90909H31.0078ZM32.9851 6.77273V3.77273H29.9851V6.77273H32.9851ZM34.9964 6.77273H37.9964V3.77273H34.9964V6.77273ZM35.2436 20.5284L32.6485 22.0336L32.6664 22.0644L32.6851 22.0949L35.2436 20.5284ZM35.8913 21.0909L34.8514 23.9049L34.8878 23.9183L34.9245 23.9309L35.8913 21.0909ZM37.2805 21.1932L37.7545 24.1555L37.8119 24.1463L37.8689 24.1349L37.2805 21.1932ZM37.6214 21.125L40.5474 20.4625L39.9014 17.6096L37.0331 18.1833L37.6214 21.125ZM38.0305 22.9318L39.0839 25.7408L41.5344 24.8219L40.9565 22.2693L38.0305 22.9318ZM37.4595 23.0852L36.8449 20.1489L36.8124 20.1557L36.78 20.1632L37.4595 23.0852ZM34.8601 22.804L33.623 25.5371L33.6337 25.5419L34.8601 22.804ZM33.5135 21.6875L31.061 23.4154L31.0676 23.4246L31.0742 23.4338L33.5135 21.6875ZM34.7919 9.90909V11.6136H40.7919V9.90909H34.7919ZM37.7919 8.61364H31.0078V14.6136H37.7919V8.61364ZM34.0078 11.6136V9.90909H28.0078V11.6136H34.0078ZM31.0078 12.9091H37.7919V6.90909H31.0078V12.9091ZM32.9851 9.77273H34.9964V3.77273H32.9851V9.77273ZM31.9964 6.77273V19.25H37.9964V6.77273H31.9964ZM31.9964 19.25C31.9964 20.0099 32.0893 21.0694 32.6485 22.0336L37.8387 19.0233C37.9058 19.139 37.9458 19.2366 37.9688 19.3027C37.9918 19.3688 38.001 19.4125 38.0037 19.4263C38.0079 19.4481 37.9964 19.3979 37.9964 19.25H31.9964ZM32.6851 22.0949C33.1444 22.8451 33.8537 23.5362 34.8514 23.9049L36.9313 18.2769C37.1492 18.3575 37.3423 18.4754 37.5004 18.6127C37.6544 18.7464 37.7494 18.8758 37.8022 18.9619L32.6851 22.0949ZM34.9245 23.9309C35.5174 24.1327 36.1265 24.2273 36.7351 24.2273V18.2273C36.7418 18.2273 36.7578 18.2278 36.7812 18.2316C36.8048 18.2354 36.831 18.2417 36.8581 18.251L34.9245 23.9309ZM36.7351 24.2273C37.0404 24.2273 37.3959 24.2129 37.7545 24.1555L36.8066 18.2309C36.8305 18.227 36.8463 18.2252 36.8525 18.2246C36.8588 18.2239 36.8585 18.2241 36.8505 18.2246C36.8335 18.2257 36.7962 18.2273 36.7351 18.2273V24.2273ZM37.8689 24.1349C38.0109 24.1065 38.1246 24.0838 38.2098 24.0667L37.0331 18.1833C36.9479 18.2003 36.8342 18.223 36.6922 18.2514L37.8689 24.1349ZM34.6955 21.7875L35.1046 23.5943L40.9565 22.2693L40.5474 20.4625L34.6955 21.7875ZM36.9772 20.1228C37.003 20.1132 37.0187 20.1082 37.0219 20.1072C37.0254 20.1061 37.021 20.1075 37.0071 20.1113C36.9782 20.119 36.9258 20.1319 36.8449 20.1489L38.0741 26.0216C38.3785 25.9579 38.7392 25.8701 39.0839 25.7408L36.9772 20.1228ZM36.78 20.1632C36.8185 20.1543 36.8192 20.1572 36.77 20.1617C36.7225 20.166 36.6444 20.1705 36.5305 20.1705V26.1705C37.0336 26.1705 37.5915 26.1346 38.1391 26.0073L36.78 20.1632ZM36.5305 20.1705C36.4069 20.1705 36.2666 20.1468 36.0864 20.0661L33.6337 25.5419C34.5445 25.9498 35.5178 26.1705 36.5305 26.1705V20.1705ZM36.0972 20.0709C36.0566 20.0525 36.0159 20.0292 35.9528 19.9412L31.0742 23.4338C31.727 24.3458 32.5841 25.0668 33.623 25.537L36.0972 20.0709ZM35.9659 19.9596C36.0004 20.0086 36.0092 20.0416 36.0066 20.0325C36.0027 20.0185 35.9851 19.9466 35.9851 19.7955H29.9851C29.9851 21.0226 30.2736 22.2976 31.061 23.4154L35.9659 19.9596ZM35.9851 19.7955V6.77273H29.9851V19.7955H35.9851ZM42.8842 22.429L41.2768 24.962L41.2841 24.9666L42.8842 22.429ZM40.8047 20.0682L38.1094 21.3856L38.1154 21.3977L40.8047 20.0682ZM40.8047 12.9517L38.1124 11.6281L38.1065 11.6403L40.8047 12.9517ZM42.8842 10.5824L41.2841 8.04476L41.2768 8.0494L42.8842 10.5824ZM49.0973 10.5824L47.4898 13.1154L47.4971 13.12L49.0973 10.5824ZM51.1768 12.9517L48.4786 14.2631L48.4846 14.2753L51.1768 12.9517ZM51.1768 20.0682L48.4875 18.7386L48.4816 18.7508L51.1768 20.0682ZM49.0973 22.429L47.4971 19.8913L47.4898 19.896L49.0973 22.429ZM48.2109 20.7756L46.3453 18.4262L46.3453 18.4262L48.2109 20.7756ZM49.4979 18.9602L52.3103 20.0043L52.3103 20.0043L49.4979 18.9602ZM49.4979 14.0767L52.3129 13.0396L52.3129 13.0396L49.4979 14.0767ZM48.2109 12.2443L50.0906 9.90619L50.0906 9.90619L48.2109 12.2443ZM43.7791 12.2443L41.8994 9.90619L41.8994 9.90619L43.7791 12.2443ZM42.4922 14.0767L39.6772 13.0396L39.6772 13.0396L42.4922 14.0767ZM42.4922 18.9602L39.6797 20.0043L39.6797 20.0043L42.4922 18.9602ZM43.7791 20.7756L45.6448 18.4262L45.6448 18.4262L43.7791 20.7756ZM45.995 20.2727C45.3092 20.2727 44.8411 20.1163 44.4844 19.8914L41.2841 24.9666C42.7114 25.8666 44.3173 26.2727 45.995 26.2727V20.2727ZM44.4917 19.896C44.1041 19.65 43.7693 19.2956 43.494 18.7386L38.1154 21.3977C38.8401 22.8635 39.8916 24.0829 41.2768 24.962L44.4917 19.896ZM43.5 18.7508C43.2425 18.2241 43.0632 17.5092 43.0632 16.5227H37.0632C37.0632 18.2408 37.3782 19.8895 38.1094 21.3855L43.5 18.7508ZM43.0632 16.5227C43.0632 15.5212 43.2439 14.7959 43.5029 14.2631L38.1065 11.6403C37.3768 13.1416 37.0632 14.797 37.0632 16.5227H43.0632ZM43.4969 14.2753C43.7736 13.7126 44.1083 13.3587 44.4917 13.1154L41.2768 8.0494C39.8874 8.93109 38.8358 10.1567 38.1124 11.6281L43.4969 14.2753ZM44.4844 13.12C44.8411 12.895 45.3092 12.7386 45.995 12.7386V6.73864C44.3173 6.73864 42.7114 7.14473 41.2841 8.04477L44.4844 13.12ZM45.995 12.7386C46.6813 12.7386 47.1428 12.8951 47.4898 13.1154L50.7048 8.0494C49.2791 7.14464 47.6724 6.73864 45.995 6.73864V12.7386ZM47.4971 13.12C47.8816 13.3624 48.2105 13.7113 48.4787 14.2631L53.875 11.6403C53.1546 10.158 52.0971 8.92733 50.6975 8.04477L47.4971 13.12ZM48.4846 14.2753C48.7451 14.8051 48.9268 15.5259 48.9268 16.5227H54.9268C54.9268 14.7923 54.6086 13.1324 53.8691 11.6281L48.4846 14.2753ZM48.9268 16.5227C48.9268 17.5044 48.7465 18.2149 48.4875 18.7386L53.8661 21.3977C54.6072 19.8987 54.9268 18.2456 54.9268 16.5227H48.9268ZM48.4816 18.7508C48.2147 19.2968 47.8859 19.6462 47.4971 19.8914L50.6975 24.9666C52.0928 24.0867 53.1504 22.8623 53.8721 21.3855L48.4816 18.7508ZM47.4898 19.896C47.1428 20.1162 46.6813 20.2727 45.995 20.2727V26.2727C47.6724 26.2727 49.2791 25.8667 50.7048 24.962L47.4898 19.896ZM45.995 24.4659C47.4213 24.4659 48.8605 24.0906 50.0766 23.1249L46.3453 18.4262C46.3585 18.4158 46.3621 18.4191 46.33 18.4291C46.2916 18.4411 46.1887 18.4659 45.995 18.4659V24.4659ZM50.0766 23.1249C51.1196 22.2966 51.8574 21.2245 52.3103 20.0043L46.6854 17.9162C46.5815 18.1959 46.4614 18.334 46.3453 18.4262L50.0766 23.1249ZM52.3103 20.0043C52.7239 18.8902 52.9155 17.7207 52.9155 16.5227H46.9155C46.9155 17.0748 46.8287 17.5303 46.6854 17.9162L52.3103 20.0043ZM52.9155 16.5227C52.9155 15.3245 52.7238 14.155 52.3129 13.0396L46.6828 15.1138C46.8287 15.5098 46.9155 15.971 46.9155 16.5227H52.9155ZM52.3129 13.0396C51.8626 11.8173 51.1291 10.7411 50.0906 9.90619L46.3313 14.5824C46.4518 14.6794 46.5763 14.8247 46.6828 15.1138L52.3129 13.0396ZM50.0906 9.90619C48.8741 8.92824 47.4297 8.54545 45.995 8.54545V14.5455C46.1854 14.5455 46.2847 14.5701 46.32 14.5813C46.3488 14.5904 46.344 14.5927 46.3313 14.5824L50.0906 9.90619ZM45.995 8.54545C44.5604 8.54545 43.1159 8.92824 41.8994 9.90619L45.6588 14.5824C45.6461 14.5927 45.6412 14.5904 45.6701 14.5813C45.7053 14.5701 45.8047 14.5455 45.995 14.5455V8.54545ZM41.8994 9.90619C40.8609 10.7411 40.1275 11.8173 39.6772 13.0396L45.3072 15.1138C45.4137 14.8247 45.5382 14.6794 45.6588 14.5824L41.8994 9.90619ZM39.6772 13.0396C39.2662 14.155 39.0746 15.3245 39.0746 16.5227H45.0746C45.0746 15.971 45.1613 15.5098 45.3072 15.1138L39.6772 13.0396ZM39.0746 16.5227C39.0746 17.7207 39.2662 18.8902 39.6797 20.0043L45.3047 17.9162C45.1614 17.5303 45.0746 17.0748 45.0746 16.5227H39.0746ZM39.6797 20.0043C40.1327 21.2245 40.8705 22.2966 41.9135 23.1249L45.6448 18.4262C45.5287 18.334 45.4085 18.1959 45.3047 17.9162L39.6797 20.0043ZM41.9135 23.1249C43.1296 24.0906 44.5688 24.4659 45.995 24.4659V18.4659C45.8014 18.4659 45.6985 18.4411 45.6601 18.4291C45.6279 18.4191 45.6316 18.4158 45.6448 18.4262L41.9135 23.1249ZM54.9972 23H51.9972V26H54.9972V23ZM54.9972 9.90909V6.90909H51.9972V9.90909H54.9972ZM56.9403 9.90909H59.9403V6.90909H56.9403V9.90909ZM56.9403 11.9545H53.9403V14.9545H56.9403V11.9545ZM57.1108 11.9545V14.9545H59.1604L59.9055 13.0452L57.1108 11.9545ZM58.4318 10.3267L60.0409 12.8587L60.0493 12.8533L60.0577 12.8479L58.4318 10.3267ZM62.7784 10.3267L61.0861 12.8038L61.1002 12.8134L61.1143 12.8229L62.7784 10.3267ZM64.1335 11.9545L61.4116 13.2159L62.2173 14.9545H64.1335V11.9545ZM64.2699 11.9545V14.9545H66.131L66.9577 13.2871L64.2699 11.9545ZM65.7784 10.3438L67.309 12.9239L67.3171 12.9191L67.3251 12.9143L65.7784 10.3438ZM71.0625 10.8381L68.9575 12.9757L68.9659 12.9838L71.0625 10.8381ZM72.179 23V26H75.179V23H72.179ZM70.1676 23H67.1676V26H70.1676V23ZM69.375 12.1676L67.5227 14.5274L67.5227 14.5274L69.375 12.1676ZM65.3693 12.3807L67.5798 14.4089L67.585 14.4032L67.5902 14.3976L65.3693 12.3807ZM64.6108 23V26H67.6108V23H64.6108ZM62.5653 23H59.5653V26H62.5653V23ZM61.8409 12.2358L59.7713 14.4076L59.778 14.414L59.7848 14.4204L61.8409 12.2358ZM58.5085 11.9631L56.9416 9.4048L56.9344 9.40921L56.9272 9.41365L58.5085 11.9631ZM57.4176 13.1222L54.8037 11.6499L54.798 11.6601L57.4176 13.1222ZM57.0085 23V26H60.0085V23H57.0085ZM57.9972 23V9.90909H51.9972V23H57.9972ZM54.9972 12.9091H56.9403V6.90909H54.9972V12.9091ZM53.9403 9.90909V11.9545H59.9403V9.90909H53.9403ZM56.9403 14.9545H57.1108V8.95455H56.9403V14.9545ZM59.9055 13.0452C59.9566 12.9143 59.9947 12.888 60.0409 12.8587L56.8227 7.79475C55.653 8.53812 54.8104 9.59709 54.3161 10.8639L59.9055 13.0452ZM60.0577 12.8479C60.1 12.8206 60.2421 12.7386 60.6222 12.7386V6.73864C59.2977 6.73864 57.9795 7.0487 56.806 7.80547L60.0577 12.8479ZM60.6222 12.7386C60.8287 12.7386 60.9545 12.7622 61.0196 12.7799C61.0801 12.7965 61.0941 12.8093 61.0861 12.8038L64.4707 7.84958C63.289 7.04226 61.9422 6.73864 60.6222 6.73864V12.7386ZM61.1143 12.8229C61.1866 12.8711 61.2946 12.9635 61.4116 13.2159L66.8555 10.6932C66.3247 9.54787 65.5293 8.55508 64.4425 7.83055L61.1143 12.8229ZM64.1335 14.9545H64.2699V8.95455H64.1335V14.9545ZM66.9577 13.2871C67.0269 13.1476 67.1193 13.0365 67.309 12.9239L64.2478 7.76359C63.0966 8.44648 62.1834 9.40921 61.5821 10.6219L66.9577 13.2871ZM67.3251 12.9143C67.4436 12.843 67.6893 12.7386 68.1903 12.7386V6.73864C66.8164 6.73864 65.4541 7.03767 64.2317 7.77319L67.3251 12.9143ZM68.1903 12.7386C68.6766 12.7386 68.8441 12.8639 68.9576 12.9756L73.1674 8.70049C71.7923 7.34631 70.045 6.73864 68.1903 6.73864V12.7386ZM68.9659 12.9838C68.9049 12.9242 69.179 13.1203 69.179 14.2386H75.179C75.179 12.2775 74.7088 10.2065 73.1591 8.69232L68.9659 12.9838ZM69.179 14.2386V23H75.179V14.2386H69.179ZM72.179 20H70.1676V26H72.179V20ZM73.1676 23V14.2386H67.1676V23H73.1676ZM73.1676 14.2386C73.1676 12.7734 72.7575 11.0088 71.2273 9.80778L67.5227 14.5274C67.4289 14.4539 67.3481 14.3683 67.284 14.2788C67.2208 14.1908 67.1855 14.1155 67.1676 14.0687C67.1354 13.9845 67.1676 14.0156 67.1676 14.2386H73.1676ZM71.2273 9.80778C70.1345 8.94999 68.8489 8.54545 67.5085 8.54545V14.5455C67.5424 14.5455 67.5616 14.5479 67.5684 14.5489C67.5749 14.55 67.5724 14.55 67.5634 14.547C67.5592 14.5456 67.5543 14.5438 67.549 14.5415C67.5437 14.5392 67.5387 14.5368 67.5342 14.5343C67.5245 14.5291 67.5206 14.5258 67.5227 14.5274L71.2273 9.80778ZM67.5085 8.54545C65.9467 8.54545 64.347 9.04403 63.1485 10.3638L67.5902 14.3976C67.5628 14.4277 67.5267 14.4602 67.4834 14.4899C67.4403 14.5195 67.4016 14.5382 67.3745 14.5488C67.3207 14.5698 67.3479 14.5455 67.5085 14.5455V8.54545ZM63.1588 10.3525C62.0777 11.5308 61.6108 12.9861 61.6108 14.4773H67.6108C67.6108 14.4149 67.6154 14.3751 67.6188 14.3544C67.6222 14.3342 67.6245 14.3304 67.6215 14.3388C67.6183 14.3476 67.612 14.3619 67.6022 14.3781C67.5924 14.3942 67.5836 14.4048 67.5798 14.4089L63.1588 10.3525ZM61.6108 14.4773V23H67.6108V14.4773H61.6108ZM64.6108 20H62.5653V26H64.6108V20ZM65.5653 23V14.0341H59.5653V23H65.5653ZM65.5653 14.0341C65.5653 12.5742 65.059 11.1449 63.897 10.0512L59.7848 14.4204C59.7185 14.358 59.6475 14.2613 59.6015 14.1473C59.5587 14.0408 59.5653 13.9884 59.5653 14.0341H65.5653ZM63.9105 10.064C62.7901 8.99627 61.389 8.54545 59.9744 8.54545V14.5455C60.0517 14.5455 60.0388 14.5567 59.9714 14.5318C59.9388 14.5197 59.9014 14.502 59.8632 14.4781C59.825 14.4543 59.7941 14.4293 59.7713 14.4076L63.9105 10.064ZM59.9744 8.54545C58.8873 8.54545 57.8579 8.84354 56.9416 9.4048L60.0755 14.5213C60.0818 14.5174 60.0681 14.5264 60.0379 14.5351C60.0072 14.5438 59.983 14.5455 59.9744 14.5455V8.54545ZM56.9272 9.41365C56.0173 9.97803 55.3112 10.7489 54.8037 11.6499L60.0315 14.5944C60.0599 14.5439 60.0792 14.5226 60.0837 14.5177C60.0876 14.5137 60.0881 14.5136 60.0898 14.5125L56.9272 9.41365ZM54.798 11.6601C54.2411 12.6578 54.0085 13.7406 54.0085 14.8182H60.0085C60.0085 14.7099 60.02 14.646 60.0272 14.6161C60.0308 14.6009 60.0339 14.5922 60.0354 14.5885C60.0361 14.5866 60.0366 14.5854 60.0369 14.5849C60.037 14.5847 60.0371 14.5845 60.0371 14.5844C60.0372 14.5843 60.0372 14.5843 60.0372 14.5843L54.798 11.6601ZM54.0085 14.8182V23H60.0085V14.8182H54.0085ZM57.0085 20H54.9972V26H57.0085V20ZM78.0639 22.429L76.4564 24.962L76.4638 24.9666L78.0639 22.429ZM75.9844 20.0682L73.2891 21.3856L73.2951 21.3977L75.9844 20.0682ZM75.9844 12.9517L73.2921 11.6281L73.2862 11.6403L75.9844 12.9517ZM78.0639 10.5824L76.4638 8.04476L76.4564 8.0494L78.0639 10.5824ZM84.277 10.5824L82.6695 13.1154L82.6768 13.12L84.277 10.5824ZM86.3565 12.9517L83.6583 14.2631L83.6643 14.2753L86.3565 12.9517ZM86.3565 20.0682L83.6672 18.7386L83.6612 18.7508L86.3565 20.0682ZM84.277 22.429L82.6768 19.8913L82.6695 19.896L84.277 22.429ZM83.3906 20.7756L81.525 18.4262L81.525 18.4262L83.3906 20.7756ZM84.6776 18.9602L87.49 20.0043L87.49 20.0043L84.6776 18.9602ZM84.6776 14.0767L87.4926 13.0396L87.4926 13.0396L84.6776 14.0767ZM83.3906 12.2443L85.2703 9.90619L85.2703 9.90619L83.3906 12.2443ZM78.9588 12.2443L77.0791 9.90619L77.0791 9.90619L78.9588 12.2443ZM77.6719 14.0767L74.8568 13.0396L74.8568 13.0396L77.6719 14.0767ZM77.6719 18.9602L74.8594 20.0043L74.8594 20.0043L77.6719 18.9602ZM78.9588 20.7756L80.8245 18.4262L80.8245 18.4262L78.9588 20.7756ZM81.1747 20.2727C80.4888 20.2727 80.0208 20.1163 79.6641 19.8914L76.4638 24.9666C77.8911 25.8666 79.4969 26.2727 81.1747 26.2727V20.2727ZM79.6714 19.896C79.2838 19.65 78.949 19.2956 78.6737 18.7386L73.2951 21.3977C74.0197 22.8635 75.0713 24.0829 76.4564 24.962L79.6714 19.896ZM78.6797 18.7508C78.4222 18.2241 78.2429 17.5092 78.2429 16.5227H72.2429C72.2429 18.2408 72.5579 19.8895 73.2891 21.3855L78.6797 18.7508ZM78.2429 16.5227C78.2429 15.5212 78.4236 14.7959 78.6826 14.2631L73.2862 11.6403C72.5565 13.1416 72.2429 14.797 72.2429 16.5227H78.2429ZM78.6766 14.2753C78.9533 13.7126 79.288 13.3587 79.6714 13.1154L76.4564 8.0494C75.0671 8.93109 74.0155 10.1567 73.2921 11.6281L78.6766 14.2753ZM79.6641 13.12C80.0208 12.895 80.4888 12.7386 81.1747 12.7386V6.73864C79.4969 6.73864 77.8911 7.14473 76.4638 8.04477L79.6641 13.12ZM81.1747 12.7386C81.861 12.7386 82.3225 12.8951 82.6695 13.1154L85.8845 8.0494C84.4588 7.14464 82.8521 6.73864 81.1747 6.73864V12.7386ZM82.6768 13.12C83.0613 13.3624 83.3902 13.7113 83.6583 14.2631L89.0547 11.6403C88.3343 10.158 87.2768 8.92733 85.8771 8.04477L82.6768 13.12ZM83.6643 14.2753C83.9248 14.8051 84.1065 15.5259 84.1065 16.5227H90.1065C90.1065 14.7923 89.7883 13.1324 89.0488 11.6281L83.6643 14.2753ZM84.1065 16.5227C84.1065 17.5044 83.9262 18.2149 83.6672 18.7386L89.0458 21.3977C89.7869 19.8987 90.1065 18.2456 90.1065 16.5227H84.1065ZM83.6612 18.7508C83.3944 19.2968 83.0655 19.6462 82.6768 19.8914L85.8771 24.9666C87.2725 24.0867 88.33 22.8623 89.0518 21.3855L83.6612 18.7508ZM82.6695 19.896C82.3225 20.1162 81.861 20.2727 81.1747 20.2727V26.2727C82.8521 26.2727 84.4588 25.8667 85.8845 24.962L82.6695 19.896ZM81.1747 24.4659C82.601 24.4659 84.0402 24.0906 85.2563 23.1249L81.525 18.4262C81.5382 18.4158 81.5418 18.4191 81.5097 18.4291C81.4713 18.4411 81.3684 18.4659 81.1747 18.4659V24.4659ZM85.2563 23.1249C86.2993 22.2966 87.0371 21.2245 87.49 20.0043L81.8651 17.9162C81.7612 18.1959 81.6411 18.334 81.525 18.4262L85.2563 23.1249ZM87.49 20.0043C87.9036 18.8902 88.0952 17.7207 88.0952 16.5227H82.0952C82.0952 17.0748 82.0083 17.5303 81.8651 17.9162L87.49 20.0043ZM88.0952 16.5227C88.0952 15.3245 87.9035 14.155 87.4926 13.0396L81.8625 15.1138C82.0084 15.5098 82.0952 15.971 82.0952 16.5227H88.0952ZM87.4926 13.0396C87.0423 11.8173 86.3088 10.7411 85.2703 9.90619L81.511 14.5824C81.6315 14.6794 81.756 14.8247 81.8625 15.1138L87.4926 13.0396ZM85.2703 9.90619C84.0538 8.92824 82.6094 8.54545 81.1747 8.54545V14.5455C81.3651 14.5455 81.4644 14.5701 81.4996 14.5813C81.5285 14.5904 81.5237 14.5927 81.511 14.5824L85.2703 9.90619ZM81.1747 8.54545C79.74 8.54545 78.2956 8.92824 77.0791 9.90619L80.8385 14.5824C80.8258 14.5927 80.8209 14.5904 80.8498 14.5813C80.885 14.5701 80.9844 14.5455 81.1747 14.5455V8.54545ZM77.0791 9.90619C76.0406 10.7411 75.3072 11.8173 74.8568 13.0396L80.4869 15.1138C80.5934 14.8247 80.7179 14.6794 80.8385 14.5824L77.0791 9.90619ZM74.8568 13.0396C74.4459 14.155 74.2543 15.3245 74.2543 16.5227H80.2543C80.2543 15.971 80.341 15.5098 80.4869 15.1138L74.8568 13.0396ZM74.2543 16.5227C74.2543 17.7207 74.4458 18.8902 74.8594 20.0043L80.4843 17.9162C80.3411 17.5303 80.2543 17.0748 80.2543 16.5227H74.2543ZM74.8594 20.0043C75.3124 21.2245 76.0502 22.2966 77.0932 23.1249L80.8245 18.4262C80.7084 18.334 80.5882 18.1959 80.4843 17.9162L74.8594 20.0043ZM77.0932 23.1249C78.3092 24.0906 79.7485 24.4659 81.1747 24.4659V18.4659C80.981 18.4659 80.8782 18.4411 80.8398 18.4291C80.8076 18.4191 80.8113 18.4158 80.8245 18.4262L77.0932 23.1249ZM90.1768 27.9091H87.1768V30.9091H90.1768V27.9091ZM90.1768 9.90909V6.90909H87.1768V9.90909H90.1768ZM92.12 9.90909H95.12V6.90909H92.12V9.90909ZM92.12 11.9886H89.12V14.9886H92.12V11.9886ZM92.3587 11.9886V14.9886H93.9867L94.874 13.6236L92.3587 11.9886ZM92.9723 11.1193L90.5677 9.32542L90.563 9.33178L92.9723 11.1193ZM94.1143 10.1648L95.5866 12.7787L95.5964 12.7731L94.1143 10.1648ZM99.0575 10.5653L100.702 8.05623L100.702 8.05622L99.0575 10.5653ZM101.026 12.9091L103.745 11.6413L103.745 11.6413L101.026 12.9091ZM101.026 20.0938L103.745 21.3616L103.748 21.3557L101.026 20.0938ZM99.0661 22.446L100.718 24.95L100.724 24.9461L100.73 24.9422L99.0661 22.446ZM94.157 22.8551L92.6876 25.4706L92.6988 25.4769L92.7101 25.4831L94.157 22.8551ZM92.9893 21.892L90.5893 23.692L90.5962 23.7011L90.6031 23.7102L92.9893 21.892ZM92.3587 20.9886L94.9095 19.4096L94.0298 17.9886H92.3587V20.9886ZM92.1882 20.9886V17.9886H89.1882V20.9886H92.1882ZM92.1882 27.9091V30.9091H95.1882V27.9091H92.1882ZM92.5888 19.071L89.7876 20.1451L89.7904 20.1522L92.5888 19.071ZM93.8587 20.8352L92.0354 23.2176L92.0431 23.2235L92.0509 23.2294L93.8587 20.8352ZM98.0092 20.8011L99.8659 23.1576L99.8689 23.1552L98.0092 20.8011ZM99.2876 18.9943L96.4838 17.9272L96.4795 17.9386L99.2876 18.9943ZM99.2962 13.9659L96.4863 15.0169L96.4912 15.0299L96.4961 15.0428L99.2962 13.9659ZM98.0263 12.2017L96.1845 14.5698L96.1977 14.58L96.211 14.5902L98.0263 12.2017ZM93.8416 12.1676L95.6178 14.5853L95.6258 14.5794L95.6338 14.5735L93.8416 12.1676ZM92.5803 13.8892L95.3775 14.9734L95.3803 14.9661L92.5803 13.8892ZM93.1768 27.9091V9.90909H87.1768V27.9091H93.1768ZM90.1768 12.9091H92.12V6.90909H90.1768V12.9091ZM89.12 9.90909V11.9886H95.12V9.90909H89.12ZM92.12 14.9886H92.3587V8.98864H92.12V14.9886ZM94.874 13.6236C94.9739 13.4699 95.1376 13.2357 95.3816 12.9069L90.563 9.33178C90.2842 9.70751 90.0389 10.0528 89.8433 10.3537L94.874 13.6236ZM95.3769 12.9132C95.3358 12.9682 95.3618 12.9053 95.5866 12.7787L92.6421 7.55085C91.8783 7.98106 91.1429 8.5545 90.5677 9.32543L95.3769 12.9132ZM95.5964 12.7731C95.5287 12.8116 95.5196 12.8007 95.6132 12.7811C95.7079 12.7612 95.8779 12.7386 96.1428 12.7386V6.73864C95.0035 6.73864 93.7506 6.92104 92.6323 7.5564L95.5964 12.7731ZM96.1428 12.7386C96.7193 12.7386 97.1076 12.8743 97.413 13.0745L100.702 8.05622C99.3257 7.15415 97.7707 6.73864 96.1428 6.73864V12.7386ZM97.413 13.0745C97.7372 13.2869 98.0448 13.6139 98.3073 14.1769L103.745 11.6413C103.065 10.1816 102.06 8.94607 100.702 8.05623L97.413 13.0745ZM98.3073 14.1769C98.556 14.7101 98.7337 15.4523 98.7337 16.4886H104.734C104.734 14.7749 104.44 13.1308 103.745 11.6413L98.3073 14.1769ZM98.7337 16.4886C98.7337 17.5397 98.5548 18.2923 98.3046 18.8318L103.748 21.3557C104.441 19.8611 104.734 18.2103 104.734 16.4886H98.7337ZM98.3073 18.8259C98.0414 19.3962 97.7298 19.7313 97.402 19.9499L100.73 24.9422C102.073 24.0471 103.068 22.8141 103.745 21.3616L98.3073 18.8259ZM97.4138 19.942C97.113 20.1405 96.7356 20.2727 96.1768 20.2727V26.2727C97.8 26.2727 99.3486 25.8538 100.718 24.95L97.4138 19.942ZM96.1768 20.2727C95.9171 20.2727 95.747 20.2508 95.6486 20.2305C95.5513 20.2103 95.5494 20.1971 95.6038 20.2271L92.7101 25.4831C93.8156 26.0918 95.0455 26.2727 96.1768 26.2727V20.2727ZM95.6263 20.2396C95.3787 20.1005 95.3398 20.0269 95.3756 20.0739L90.6031 23.7102C91.1843 24.4731 91.9238 25.0416 92.6876 25.4706L95.6263 20.2396ZM95.3893 20.092C95.1418 19.762 94.9906 19.5407 94.9095 19.4096L89.8079 22.5677C90.0222 22.9139 90.2914 23.2948 90.5893 23.692L95.3893 20.092ZM92.3587 17.9886H92.1882V23.9886H92.3587V17.9886ZM89.1882 20.9886V27.9091H95.1882V20.9886H89.1882ZM92.1882 24.9091H90.1768V30.9091H92.1882V24.9091ZM89.1541 16.4545C89.1541 17.7315 89.3409 18.98 89.7877 20.1451L95.3899 17.9969C95.2571 17.6507 95.1541 17.1548 95.1541 16.4545H89.1541ZM89.7904 20.1522C90.2494 21.3403 90.9786 22.4089 92.0354 23.2176L95.6819 18.4528C95.625 18.4093 95.5077 18.3017 95.3872 17.9898L89.7904 20.1522ZM92.0509 23.2294C93.2072 24.1025 94.551 24.4659 95.9041 24.4659V18.4659C95.7618 18.4659 95.6915 18.4476 95.6716 18.4414C95.6611 18.4382 95.6585 18.4365 95.6609 18.4378C95.6619 18.4382 95.6631 18.4389 95.6644 18.4397C95.665 18.4401 95.6656 18.4405 95.6659 18.4407C95.6663 18.441 95.6665 18.4411 95.6665 18.4411L92.0509 23.2294ZM95.9041 24.4659C97.2963 24.4659 98.6856 24.0875 99.8659 23.1576L96.1526 18.4447C96.1639 18.4358 96.1726 18.4342 96.1577 18.439C96.1374 18.4454 96.061 18.4659 95.9041 18.4659V24.4659ZM99.8689 23.1552C100.913 22.33 101.642 21.2564 102.096 20.05L96.4795 17.9386C96.3649 18.2436 96.2414 18.3745 96.1495 18.4471L99.8689 23.1552ZM102.091 20.0614C102.528 18.9139 102.722 17.6992 102.722 16.4545H96.7223C96.7223 17.0735 96.6267 17.552 96.4838 17.9272L102.091 20.0614ZM102.722 16.4545C102.722 15.225 102.532 14.0224 102.096 12.889L96.4961 15.0428C96.6284 15.3867 96.7223 15.8432 96.7223 16.4545H102.722ZM102.106 12.9149C101.652 11.702 100.911 10.626 99.8415 9.81322L96.211 14.5902C96.2779 14.641 96.3832 14.7412 96.4863 15.0169L102.106 12.9149ZM99.8681 9.83365C98.6814 8.91065 97.2883 8.54545 95.9041 8.54545V14.5455C96.0742 14.5455 96.1605 14.5672 96.1876 14.5756C96.209 14.5822 96.2002 14.582 96.1845 14.5698L99.8681 9.83365ZM95.9041 8.54545C94.5592 8.54545 93.2121 8.89568 92.0495 9.76173L95.6338 14.5735C95.6234 14.5812 95.6192 14.5798 95.6413 14.5732C95.668 14.5651 95.7484 14.5455 95.9041 14.5455V8.54545ZM92.0654 9.74997C90.9817 10.5462 90.2396 11.6178 89.7802 12.8123L95.3803 14.9661C95.4891 14.6833 95.5879 14.6072 95.6178 14.5853L92.0654 9.74997ZM89.783 12.805C89.3367 13.9565 89.1541 15.1934 89.1541 16.4545H95.1541C95.1541 15.7611 95.2556 15.2878 95.3775 14.9734L89.783 12.805ZM107.009 22.429L105.402 24.962L105.409 24.9666L107.009 22.429ZM104.93 20.0682L102.234 21.3856L102.24 21.3977L104.93 20.0682ZM104.93 12.9517L102.237 11.6281L102.232 11.6403L104.93 12.9517ZM107.009 10.5824L105.409 8.04476L105.402 8.0494L107.009 10.5824ZM113.222 10.5824L111.615 13.1154L111.622 13.12L113.222 10.5824ZM115.302 12.9517L112.604 14.2631L112.61 14.2753L115.302 12.9517ZM115.302 20.0682L112.613 18.7386L112.607 18.7508L115.302 20.0682ZM113.222 22.429L111.622 19.8913L111.615 19.896L113.222 22.429ZM112.336 20.7756L110.47 18.4262L110.47 18.4262L112.336 20.7756ZM113.623 18.9602L116.435 20.0043L116.435 20.0043L113.623 18.9602ZM113.623 14.0767L116.438 13.0396L116.438 13.0396L113.623 14.0767ZM112.336 12.2443L114.216 9.90619L114.216 9.90619L112.336 12.2443ZM107.904 12.2443L106.024 9.90619L106.024 9.90619L107.904 12.2443ZM106.617 14.0767L103.802 13.0396L103.802 13.0396L106.617 14.0767ZM106.617 18.9602L103.805 20.0043L103.805 20.0043L106.617 18.9602ZM107.904 20.7756L109.77 18.4262L109.77 18.4262L107.904 20.7756ZM110.12 20.2727C109.434 20.2727 108.966 20.1163 108.609 19.8914L105.409 24.9666C106.836 25.8666 108.442 26.2727 110.12 26.2727V20.2727ZM108.617 19.896C108.229 19.65 107.894 19.2956 107.619 18.7386L102.24 21.3977C102.965 22.8635 104.017 24.0829 105.402 24.962L108.617 19.896ZM107.625 18.7508C107.368 18.2241 107.188 17.5092 107.188 16.5227H101.188C101.188 18.2408 101.503 19.8895 102.234 21.3855L107.625 18.7508ZM107.188 16.5227C107.188 15.5212 107.369 14.7959 107.628 14.2631L102.232 11.6403C101.502 13.1416 101.188 14.797 101.188 16.5227H107.188ZM107.622 14.2753C107.899 13.7126 108.233 13.3587 108.617 13.1154L105.402 8.0494C104.012 8.93109 102.961 10.1567 102.237 11.6281L107.622 14.2753ZM108.609 13.12C108.966 12.895 109.434 12.7386 110.12 12.7386V6.73864C108.442 6.73864 106.836 7.14473 105.409 8.04477L108.609 13.12ZM110.12 12.7386C110.806 12.7386 111.268 12.8951 111.615 13.1154L114.83 8.0494C113.404 7.14464 111.797 6.73864 110.12 6.73864V12.7386ZM111.622 13.12C112.007 13.3624 112.335 13.7113 112.604 14.2631L118 11.6403C117.28 10.158 116.222 8.92733 114.822 8.04477L111.622 13.12ZM112.61 14.2753C112.87 14.8051 113.052 15.5259 113.052 16.5227H119.052C119.052 14.7923 118.734 13.1324 117.994 11.6281L112.61 14.2753ZM113.052 16.5227C113.052 17.5044 112.871 18.2149 112.613 18.7386L117.991 21.3977C118.732 19.8987 119.052 18.2456 119.052 16.5227H113.052ZM112.607 18.7508C112.34 19.2968 112.011 19.6462 111.622 19.8914L114.822 24.9666C116.218 24.0867 117.275 22.8623 117.997 21.3855L112.607 18.7508ZM111.615 19.896C111.268 20.1162 110.806 20.2727 110.12 20.2727V26.2727C111.797 26.2727 113.404 25.8667 114.83 24.962L111.615 19.896ZM110.12 24.4659C111.546 24.4659 112.986 24.0906 114.202 23.1249L110.47 18.4262C110.483 18.4158 110.487 18.4191 110.455 18.4291C110.417 18.4411 110.314 18.4659 110.12 18.4659V24.4659ZM114.202 23.1249C115.245 22.2966 115.982 21.2245 116.435 20.0043L110.81 17.9162C110.707 18.1959 110.586 18.334 110.47 18.4262L114.202 23.1249ZM116.435 20.0043C116.849 18.8902 117.04 17.7207 117.04 16.5227H111.04C111.04 17.0748 110.954 17.5303 110.81 17.9162L116.435 20.0043ZM117.04 16.5227C117.04 15.3245 116.849 14.155 116.438 13.0396L110.808 15.1138C110.954 15.5098 111.04 15.971 111.04 16.5227H117.04ZM116.438 13.0396C115.988 11.8173 115.254 10.7411 114.216 9.90619L110.456 14.5824C110.577 14.6794 110.701 14.8247 110.808 15.1138L116.438 13.0396ZM114.216 9.90619C112.999 8.92824 111.555 8.54545 110.12 8.54545V14.5455C110.31 14.5455 110.41 14.5701 110.445 14.5813C110.474 14.5904 110.469 14.5927 110.456 14.5824L114.216 9.90619ZM110.12 8.54545C108.685 8.54545 107.241 8.92824 106.024 9.90619L109.784 14.5824C109.771 14.5927 109.766 14.5904 109.795 14.5813C109.83 14.5701 109.93 14.5455 110.12 14.5455V8.54545ZM106.024 9.90619C104.986 10.7411 104.252 11.8173 103.802 13.0396L109.432 15.1138C109.539 14.8247 109.663 14.6794 109.784 14.5824L106.024 9.90619ZM103.802 13.0396C103.391 14.155 103.2 15.3245 103.2 16.5227H109.2C109.2 15.971 109.286 15.5098 109.432 15.1138L103.802 13.0396ZM103.2 16.5227C103.2 17.7207 103.391 18.8902 103.805 20.0043L109.43 17.9162C109.286 17.5303 109.2 17.0748 109.2 16.5227H103.2ZM103.805 20.0043C104.258 21.2245 104.995 22.2966 106.038 23.1249L109.77 18.4262C109.654 18.334 109.534 18.1959 109.43 17.9162L103.805 20.0043ZM106.038 23.1249C107.255 24.0906 108.694 24.4659 110.12 24.4659V18.4659C109.926 18.4659 109.823 18.4411 109.785 18.4291C109.753 18.4191 109.757 18.4158 109.77 18.4262L106.038 23.1249ZM118.747 23H115.747V26H118.747V23ZM118.747 21.4659L116.38 19.6229L115.747 20.4358V21.4659H118.747ZM126.179 11.9205L128.546 13.7634L129.179 12.9506V11.9205H126.179ZM126.179 11.7841H129.179V8.78409H126.179V11.7841ZM118.986 11.7841H115.986V14.7841H118.986V11.7841ZM118.986 9.90909V6.90909H115.986V9.90909H118.986ZM128.77 9.90909H131.77V6.90909H128.77V9.90909ZM128.77 11.5114L131.155 13.3305L131.77 12.5247V11.5114H128.77ZM121.543 20.9886L119.157 19.1695L118.543 19.9753V20.9886H121.543ZM121.543 21.125H118.543V24.125H121.543V21.125ZM129.009 21.125H132.009V18.125H129.009V21.125ZM129.009 23V26H132.009V23H129.009ZM121.747 23V21.4659H115.747V23H121.747ZM121.114 23.3089L128.546 13.7634L123.812 10.0775L116.38 19.6229L121.114 23.3089ZM129.179 11.9205V11.7841H123.179V11.9205H129.179ZM126.179 8.78409H118.986V14.7841H126.179V8.78409ZM121.986 11.7841V9.90909H115.986V11.7841H121.986ZM118.986 12.9091H128.77V6.90909H118.986V12.9091ZM125.77 9.90909V11.5114H131.77V9.90909H125.77ZM126.384 9.6922L119.157 19.1695L123.928 22.8078L131.155 13.3305L126.384 9.6922ZM118.543 20.9886V21.125H124.543V20.9886H118.543ZM121.543 24.125H129.009V18.125H121.543V24.125ZM126.009 21.125V23H132.009V21.125H126.009ZM129.009 20H118.747V26H129.009V20ZM133.7 22.8381L132.423 25.5525L132.432 25.5569L132.442 25.5613L133.7 22.8381ZM132.089 21.4659L129.586 23.1191L129.593 23.13L132.089 21.4659ZM131.936 17.4602L134.47 19.0669L134.474 19.0599L134.478 19.053L131.936 17.4602ZM134.757 15.7557L135.399 18.6862L135.409 18.6839L135.42 18.6816L134.757 15.7557ZM136.572 15.4318L136.19 12.4563L136.183 12.4572L136.572 15.4318ZM138.507 15.2017L138.816 18.1858L138.831 18.1842L138.846 18.1825L138.507 15.2017ZM139.598 14.9205L138.13 12.304L138.116 12.3118L138.103 12.3197L139.598 14.9205ZM139.257 12.2102L137.11 14.3052L137.116 14.3119L137.123 14.3185L139.257 12.2102ZM134.928 12.142L136.759 14.5181L136.759 14.5181L134.928 12.142ZM133.777 13.4886L132.768 16.3139L135.345 17.2344L136.498 14.752L133.777 13.4886ZM131.868 12.8068L129.11 11.6251L127.853 14.5586L130.859 15.632L131.868 12.8068ZM133.232 10.9489L135.077 13.3144L135.08 13.3119L133.232 10.9489ZM135.107 10.0114L135.863 12.9145L135.871 12.9123L135.88 12.9101L135.107 10.0114ZM138.567 9.89204L138.014 12.8407L138.031 12.8439L138.049 12.847L138.567 9.89204ZM140.161 10.4972L138.617 13.0696L138.623 13.0734L138.63 13.0771L140.161 10.4972ZM141.447 11.8864L138.819 13.333L138.819 13.333L141.447 11.8864ZM141.959 23V26H144.959V23H141.959ZM139.947 23H136.947V26H139.947V23ZM139.947 21.2273H142.947V18.2273H139.947V21.2273ZM139.845 21.2273V18.2273H137.957L137.141 19.9291L139.845 21.2273ZM139.163 22.1392L141.303 24.2417L141.303 24.2417L139.163 22.1392ZM137.893 22.9659L136.708 20.21L136.708 20.21L137.893 22.9659ZM138.277 21.0312L136.797 18.4215L136.786 18.4282L138.277 21.0312ZM139.521 19.821L136.92 18.3262L136.914 18.3375L136.907 18.3488L139.521 19.821ZM139.947 16.4205H142.947V8.13427L137.643 14.4999L139.947 16.4205ZM139.385 16.7017L140.194 19.5906L140.213 19.5853L140.231 19.5798L139.385 16.7017ZM138.396 16.9148L138.852 19.8799L138.871 19.877L138.89 19.874L138.396 16.9148ZM137.314 17.0682L137.656 20.0486L137.677 20.0462L137.698 20.0435L137.314 17.0682ZM136.47 17.1705L136.858 20.1453L136.862 20.1448L136.47 17.1705ZM135.004 17.5028L135.942 20.3525L135.953 20.3489L135.964 20.3453L135.004 17.5028ZM133.913 18.1761L131.711 16.1396L131.709 16.1413L133.913 18.1761ZM134.28 20.9716L132.572 23.4382L132.588 23.4489L132.603 23.4594L134.28 20.9716ZM135.959 20.3068C135.514 20.3068 135.198 20.2252 134.959 20.1149L132.442 25.5613C133.555 26.0759 134.744 26.3068 135.959 26.3068V20.3068ZM134.978 20.1236C134.774 20.0278 134.667 19.9242 134.586 19.8018L129.593 23.13C130.307 24.2008 131.274 25.012 132.423 25.5525L134.978 20.1236ZM134.593 19.8127C134.574 19.7842 134.493 19.6569 134.493 19.2841H128.493C128.493 20.6159 128.81 21.9431 129.586 23.1191L134.593 19.8127ZM134.493 19.2841C134.493 19.1022 134.511 19.0056 134.519 18.974C134.526 18.9462 134.519 18.9889 134.47 19.0669L129.403 15.8536C128.711 16.9436 128.493 18.1632 128.493 19.2841H134.493ZM134.478 19.053C134.492 19.0306 134.501 19.0229 134.503 19.0206C134.506 19.0183 134.517 19.0079 134.547 18.9917L131.695 13.7128C130.749 14.2239 129.967 14.9519 129.394 15.8675L134.478 19.053ZM134.547 18.9917C134.774 18.8689 135.052 18.7621 135.399 18.6862L134.115 12.8252C133.269 13.0106 132.456 13.3016 131.695 13.7128L134.547 18.9917ZM135.42 18.6816C135.932 18.5656 136.446 18.4739 136.962 18.4065L136.183 12.4572C135.483 12.5488 134.787 12.6731 134.095 12.8297L135.42 18.6816ZM136.955 18.4073C137.739 18.3066 138.356 18.2333 138.816 18.1858L138.198 12.2176C137.669 12.2724 136.997 12.3525 136.19 12.4563L136.955 18.4073ZM138.846 18.1825C139.447 18.1142 140.316 17.968 141.093 17.5212L138.103 12.3197C138.208 12.259 138.291 12.2243 138.337 12.207C138.383 12.1893 138.409 12.183 138.406 12.1838C138.404 12.1843 138.383 12.1894 138.341 12.1967C138.3 12.204 138.243 12.2124 138.168 12.2209L138.846 18.1825ZM141.066 17.5369C142.461 16.7541 142.947 15.3748 142.947 14.2386H136.947C136.947 14.049 136.981 13.6918 137.19 13.2837C137.414 12.8472 137.757 12.5134 138.13 12.304L141.066 17.5369ZM142.947 14.2386V14.1705H136.947V14.2386H142.947ZM142.947 14.1705C142.947 12.7745 142.552 11.2765 141.391 10.102L137.123 14.3185C137.078 14.2729 137.038 14.222 137.006 14.1696C136.974 14.1177 136.955 14.0742 136.945 14.0462C136.926 13.9927 136.947 14.0192 136.947 14.1705H142.947ZM141.404 10.1153C140.182 8.86259 138.575 8.51136 137.186 8.51136V14.5114C137.407 14.5114 137.474 14.5403 137.439 14.5286C137.419 14.5217 137.372 14.5033 137.309 14.4651C137.245 14.4262 137.176 14.3731 137.11 14.3052L141.404 10.1153ZM137.186 8.51136C135.819 8.51136 134.338 8.80838 133.096 9.76601L136.759 14.5181C136.608 14.6348 136.632 14.5114 137.186 14.5114V8.51136ZM133.096 9.76601C132.283 10.3929 131.533 11.1972 131.056 12.2253L136.498 14.752C136.464 14.8255 136.481 14.7321 136.759 14.5181L133.096 9.76601ZM134.786 10.6634L132.877 9.98159L130.859 15.632L132.768 16.3139L134.786 10.6634ZM134.625 13.9886C134.807 13.5651 134.981 13.3893 135.077 13.3144L131.386 8.58336C130.346 9.39476 129.611 10.4576 129.11 11.6251L134.625 13.9886ZM135.08 13.3119C135.345 13.1048 135.601 12.9827 135.863 12.9145L134.35 7.10825C133.26 7.39226 132.266 7.8952 131.383 8.58586L135.08 13.3119ZM135.88 12.9101C136.327 12.7908 136.738 12.7386 137.118 12.7386V6.73864C136.18 6.73864 135.25 6.86832 134.334 7.11266L135.88 12.9101ZM137.118 12.7386C137.305 12.7386 137.597 12.7624 138.014 12.8407L139.12 6.94343C138.446 6.81712 137.772 6.73864 137.118 6.73864V12.7386ZM138.049 12.847C138.214 12.876 138.4 12.9396 138.617 13.0696L141.704 7.92468C140.898 7.44111 140.022 7.10128 139.085 6.93708L138.049 12.847ZM138.63 13.0771C138.63 13.0774 138.633 13.079 138.638 13.0834C138.644 13.0879 138.654 13.0971 138.669 13.1133C138.699 13.1457 138.753 13.2122 138.819 13.333L144.076 10.4397C143.522 9.43469 142.744 8.54185 141.691 7.91721L138.63 13.0771ZM138.819 13.333C138.819 13.3328 138.856 13.4005 138.892 13.5768C138.929 13.7541 138.959 14.014 138.959 14.375H144.959C144.959 13.0506 144.749 11.6623 144.076 10.4397L138.819 13.333ZM138.959 14.375V23H144.959V14.375H138.959ZM141.959 20H139.947V26H141.959V20ZM142.947 23V21.2273H136.947V23H142.947ZM139.947 18.2273H139.845V24.2273H139.947V18.2273ZM137.141 19.9291C137.172 19.8644 137.19 19.8453 137.17 19.8719C137.151 19.8976 137.106 19.9528 137.023 20.0367L141.303 24.2417C141.76 23.7771 142.223 23.2065 142.55 22.5255L137.141 19.9291ZM137.023 20.0367C137.04 20.0196 136.971 20.0971 136.708 20.21L139.079 25.7218C139.873 25.3802 140.65 24.9065 141.303 24.2417L137.023 20.0367ZM136.708 20.21C136.654 20.2332 136.438 20.3068 135.959 20.3068V26.3068C137.003 26.3068 138.076 26.1532 139.079 25.7218L136.708 20.21ZM136.266 24.5C137.448 24.5 138.664 24.2673 139.768 23.6343L136.786 18.4282C136.8 18.4202 136.674 18.5 136.266 18.5V24.5ZM139.757 23.6409C140.725 23.0917 141.559 22.3167 142.135 21.2932L136.907 18.3488C136.912 18.3411 136.916 18.338 136.91 18.3437C136.902 18.3509 136.871 18.3798 136.797 18.4216L139.757 23.6409ZM142.122 21.3159C142.656 20.3882 142.947 19.3556 142.947 18.2614H136.947C136.947 18.2644 136.947 18.2664 136.947 18.2675C136.947 18.2686 136.947 18.2691 136.947 18.2692C136.947 18.2692 136.947 18.2691 136.947 18.269C136.947 18.2689 136.947 18.2691 136.947 18.2697C136.947 18.2706 136.945 18.275 136.942 18.2834C136.938 18.2919 136.932 18.3061 136.92 18.3262L142.122 21.3159ZM142.947 18.2614V16.4205H136.947V18.2614H142.947ZM137.643 14.4999C137.819 14.2881 137.993 14.1462 138.113 14.0595C138.236 13.9713 138.339 13.9154 138.401 13.8842C138.519 13.8253 138.58 13.8113 138.538 13.8236L140.231 19.5798C140.479 19.5069 140.779 19.4034 141.085 19.2508C141.359 19.1135 141.836 18.8402 142.252 18.341L137.643 14.4999ZM138.576 13.8128C138.42 13.8564 138.2 13.9061 137.903 13.9556L138.89 19.874C139.342 19.7985 139.781 19.7061 140.194 19.5906L138.576 13.8128ZM137.94 13.9497C137.594 14.003 137.257 14.0507 136.93 14.0928L137.698 20.0435C138.075 19.9948 138.46 19.9402 138.852 19.8799L137.94 13.9497ZM136.972 14.0877C136.617 14.1284 136.318 14.1646 136.079 14.1961L136.862 20.1448C137.054 20.1195 137.317 20.0875 137.656 20.0486L136.972 14.0877ZM136.082 14.1957C135.384 14.2867 134.702 14.4385 134.045 14.6604L135.964 20.3453C136.215 20.2604 136.511 20.1906 136.858 20.1453L136.082 14.1957ZM134.066 14.6532C133.208 14.9357 132.384 15.4108 131.711 16.1396L136.116 20.2127C136.063 20.2701 136.01 20.3102 135.971 20.3349C135.932 20.3585 135.918 20.3604 135.942 20.3525L134.066 14.6532ZM131.709 16.1413C130.797 17.1296 130.504 18.3335 130.504 19.3864H136.504C136.504 19.3938 136.504 19.4982 136.449 19.661C136.39 19.8341 136.284 20.0313 136.118 20.211L131.709 16.1413ZM130.504 19.3864C130.504 20.9417 131.146 22.4508 132.572 23.4382L135.987 18.505C136.121 18.5972 136.281 18.76 136.393 18.9884C136.499 19.2049 136.504 19.364 136.504 19.3864H130.504ZM132.603 23.4594C133.74 24.2256 135.029 24.5 136.266 24.5V18.5C136.083 18.5 135.981 18.4797 135.94 18.4688C135.903 18.4591 135.918 18.4579 135.956 18.4838L132.603 23.4594ZM145.63 27.9091H142.63V30.9091H145.63V27.9091ZM145.63 9.90909V6.90909H142.63V9.90909H145.63ZM147.573 9.90909H150.573V6.90909H147.573V9.90909ZM147.573 11.9886H144.573V14.9886H147.573V11.9886ZM147.812 11.9886V14.9886H149.44L150.327 13.6236L147.812 11.9886ZM148.425 11.1193L146.021 9.32542L146.016 9.33178L148.425 11.1193ZM149.567 10.1648L151.04 12.7787L151.049 12.7731L149.567 10.1648ZM154.511 10.5653L156.155 8.05623L156.155 8.05622L154.511 10.5653ZM156.479 12.9091L159.198 11.6413L159.198 11.6413L156.479 12.9091ZM156.479 20.0938L159.198 21.3616L159.201 21.3557L156.479 20.0938ZM154.519 22.446L156.171 24.95L156.177 24.9461L156.183 24.9422L154.519 22.446ZM149.61 22.8551L148.141 25.4706L148.152 25.4769L148.163 25.4831L149.61 22.8551ZM148.442 21.892L146.042 23.692L146.049 23.7011L146.056 23.7102L148.442 21.892ZM147.812 20.9886L150.363 19.4096L149.483 17.9886H147.812V20.9886ZM147.641 20.9886V17.9886H144.641V20.9886H147.641ZM147.641 27.9091V30.9091H150.641V27.9091H147.641ZM148.042 19.071L145.241 20.1451L145.244 20.1522L148.042 19.071ZM149.312 20.8352L147.489 23.2176L147.496 23.2235L147.504 23.2294L149.312 20.8352ZM153.462 20.8011L155.319 23.1576L155.322 23.1552L153.462 20.8011ZM154.741 18.9943L151.937 17.9272L151.933 17.9386L154.741 18.9943ZM154.749 13.9659L151.939 15.0169L151.944 15.0299L151.949 15.0428L154.749 13.9659ZM153.479 12.2017L151.638 14.5698L151.651 14.58L151.664 14.5902L153.479 12.2017ZM149.295 12.1676L151.071 14.5853L151.079 14.5794L151.087 14.5735L149.295 12.1676ZM148.033 13.8892L150.831 14.9734L150.833 14.9661L148.033 13.8892ZM148.63 27.9091V9.90909H142.63V27.9091H148.63ZM145.63 12.9091H147.573V6.90909H145.63V12.9091ZM144.573 9.90909V11.9886H150.573V9.90909H144.573ZM147.573 14.9886H147.812V8.98864H147.573V14.9886ZM150.327 13.6236C150.427 13.4699 150.591 13.2357 150.835 12.9069L146.016 9.33178C145.737 9.70751 145.492 10.0528 145.296 10.3537L150.327 13.6236ZM150.83 12.9132C150.789 12.9682 150.815 12.9053 151.04 12.7787L148.095 7.55085C147.331 7.98106 146.596 8.5545 146.021 9.32543L150.83 12.9132ZM151.049 12.7731C150.982 12.8116 150.973 12.8007 151.066 12.7811C151.161 12.7612 151.331 12.7386 151.596 12.7386V6.73864C150.457 6.73864 149.204 6.92104 148.085 7.5564L151.049 12.7731ZM151.596 12.7386C152.172 12.7386 152.561 12.8743 152.866 13.0745L156.155 8.05622C154.779 7.15415 153.224 6.73864 151.596 6.73864V12.7386ZM152.866 13.0745C153.19 13.2869 153.498 13.6139 153.76 14.1769L159.198 11.6413C158.518 10.1816 157.513 8.94607 156.155 8.05623L152.866 13.0745ZM153.76 14.1769C154.009 14.7101 154.187 15.4523 154.187 16.4886H160.187C160.187 14.7749 159.893 13.1308 159.198 11.6413L153.76 14.1769ZM154.187 16.4886C154.187 17.5397 154.008 18.2923 153.758 18.8318L159.201 21.3557C159.894 19.8611 160.187 18.2103 160.187 16.4886H154.187ZM153.76 18.8259C153.495 19.3962 153.183 19.7313 152.855 19.9499L156.183 24.9422C157.526 24.0471 158.521 22.8141 159.198 21.3616L153.76 18.8259ZM152.867 19.942C152.566 20.1405 152.189 20.2727 151.63 20.2727V26.2727C153.253 26.2727 154.802 25.8538 156.171 24.95L152.867 19.942ZM151.63 20.2727C151.37 20.2727 151.2 20.2508 151.102 20.2305C151.004 20.2103 151.002 20.1971 151.057 20.2271L148.163 25.4831C149.269 26.0918 150.499 26.2727 151.63 26.2727V20.2727ZM151.079 20.2396C150.832 20.1005 150.793 20.0269 150.829 20.0739L146.056 23.7102C146.637 24.4731 147.377 25.0416 148.141 25.4706L151.079 20.2396ZM150.842 20.092C150.595 19.762 150.444 19.5407 150.363 19.4096L145.261 22.5677C145.475 22.9139 145.745 23.2948 146.042 23.692L150.842 20.092ZM147.812 17.9886H147.641V23.9886H147.812V17.9886ZM144.641 20.9886V27.9091H150.641V20.9886H144.641ZM147.641 24.9091H145.63V30.9091H147.641V24.9091ZM144.607 16.4545C144.607 17.7315 144.794 18.98 145.241 20.1451L150.843 17.9969C150.71 17.6507 150.607 17.1548 150.607 16.4545H144.607ZM145.244 20.1522C145.703 21.3403 146.432 22.4089 147.489 23.2176L151.135 18.4528C151.078 18.4093 150.961 18.3017 150.84 17.9898L145.244 20.1522ZM147.504 23.2294C148.66 24.1025 150.004 24.4659 151.357 24.4659V18.4659C151.215 18.4659 151.145 18.4476 151.125 18.4414C151.114 18.4382 151.112 18.4365 151.114 18.4378C151.115 18.4382 151.116 18.4389 151.118 18.4397C151.118 18.4401 151.119 18.4405 151.119 18.4407C151.119 18.441 151.12 18.4411 151.12 18.4411L147.504 23.2294ZM151.357 24.4659C152.749 24.4659 154.139 24.0875 155.319 23.1576L151.606 18.4447C151.617 18.4358 151.626 18.4342 151.611 18.439C151.591 18.4454 151.514 18.4659 151.357 18.4659V24.4659ZM155.322 23.1552C156.367 22.33 157.095 21.2564 157.549 20.05L151.933 17.9386C151.818 18.2436 151.695 18.3745 151.603 18.4471L155.322 23.1552ZM157.545 20.0614C157.981 18.9139 158.175 17.6992 158.175 16.4545H152.175C152.175 17.0735 152.08 17.552 151.937 17.9272L157.545 20.0614ZM158.175 16.4545C158.175 15.225 157.985 14.0224 157.549 12.889L151.949 15.0428C152.081 15.3867 152.175 15.8432 152.175 16.4545H158.175ZM157.559 12.9149C157.105 11.702 156.364 10.626 155.295 9.81322L151.664 14.5902C151.731 14.641 151.836 14.7412 151.939 15.0169L157.559 12.9149ZM155.321 9.83365C154.135 8.91065 152.741 8.54545 151.357 8.54545V14.5455C151.527 14.5455 151.614 14.5672 151.641 14.5756C151.662 14.5822 151.653 14.582 151.638 14.5698L155.321 9.83365ZM151.357 8.54545C150.012 8.54545 148.665 8.89568 147.503 9.76173L151.087 14.5735C151.077 14.5812 151.072 14.5798 151.094 14.5732C151.121 14.5651 151.202 14.5455 151.357 14.5455V8.54545ZM147.519 9.74997C146.435 10.5462 145.693 11.6178 145.233 12.8123L150.833 14.9661C150.942 14.6833 151.041 14.6072 151.071 14.5853L147.519 9.74997ZM145.236 12.805C144.79 13.9565 144.607 15.1934 144.607 16.4545H150.607C150.607 15.7611 150.709 15.2878 150.831 14.9734L145.236 12.805Z" fill="#8AC1E6" mask="url(#path-1-outside-1_202_2)"/>
</svg>
